# xmcd CD database file
#
# Track frame offsets:
#	150
#	22407
#	44663
#	55469
#	71419
#	78462
#	100674
#	110627
#	139386
#	149175
#
# Disc length: 2272 seconds
#
# Revision: 0
# Processed by: cddbd v1.5.1PL2 Copyright (c) Steve Scherf et al.
# Submitted via: CDex 1.51
#
DISCID=a208de0a
DTITLE=Fernando Otero and Nick Danielson - Revision
DYEAR=2005
DGENRE=Jazz
TTITLE0=El Circulo Rojo
TTITLE1=Manifestacion
TTITLE2=Globalizacion
TTITLE3=Aguaribay
TTITLE4=Danza
TTITLE5=Conexiones Firmes
TTITLE6=Nocturno
TTITLE7=Casa Vacia
TTITLE8=Alto Blanco
TTITLE9=Fin de revision
EXTD=YEAR: 2005
EXTT0=
EXTT1=
EXTT2=
EXTT3=
EXTT4=
EXTT5=
EXTT6=
EXTT7=
EXTT8=
EXTT9=
PLAYORDER=
